<mxfile host="65bd71144e">
    <diagram id="dcDPlWu9542iF46eevj4" name="Page-1">
        <mxGraphModel dx="1200" dy="1422" grid="1" gridSize="10" guides="1" tooltips="1" connect="1" arrows="1" fold="1" page="1" pageScale="1" pageWidth="850" pageHeight="1100" math="0" shadow="0">
            <root>
                <mxCell id="0"/>
                <mxCell id="1" parent="0"/>
                <mxCell id="3" value="&lt;span style=&quot;font-family: &amp;#34;open sans&amp;#34; , &amp;#34;verdana&amp;#34; , &amp;#34;arial&amp;#34; , &amp;#34;helvetica&amp;#34; , sans-serif&quot;&gt;&lt;font style=&quot;font-size: 23px&quot;&gt;&lt;b&gt;tổng quan về dự án&lt;/b&gt;&lt;/font&gt;&lt;/span&gt;&lt;h1&gt;&lt;span style=&quot;font-family: &amp;#34;open sans&amp;#34; , &amp;#34;verdana&amp;#34; , &amp;#34;arial&amp;#34; , &amp;#34;helvetica&amp;#34; , sans-serif ; font-size: 14px ; font-weight: 400&quot;&gt;: Dự án thực hiện các yêu cầu hiển thị danh sách nhân viên, danh sách phòng ban công ty, và bảng lương, tính lương cho từng nhân viên&amp;nbsp;&lt;/span&gt;&lt;br&gt;&lt;/h1&gt;" style="text;html=1;strokeColor=none;fillColor=none;spacing=5;spacingTop=-20;whiteSpace=wrap;overflow=hidden;rounded=0;verticalAlign=middle;fontColor=#FFFFFF;labelBackgroundColor=default;labelBorderColor=default;" parent="1" vertex="1">
                    <mxGeometry x="10" y="-400" width="340" height="120" as="geometry"/>
                </mxCell>
                <mxCell id="89" value="" style="edgeStyle=entityRelationEdgeStyle;html=1;dashed=1;fontSize=10;fontColor=#FFFFFF;strokeColor=default;" parent="1" source="4" target="12" edge="1">
                    <mxGeometry relative="1" as="geometry"/>
                </mxCell>
                <mxCell id="4" value="&lt;h1&gt;Danh sách các tính năng&lt;/h1&gt;&lt;p&gt;- hiển thị danh sách nhân viên&amp;nbsp;&lt;/p&gt;&lt;p&gt;- hiển thị profile từng nhân viên&amp;nbsp;&lt;/p&gt;&lt;p&gt;- hiển thị phòng ban công ty&amp;nbsp;&lt;/p&gt;&lt;p&gt;- bảng lương công ty&amp;nbsp;&lt;/p&gt;&lt;p&gt;- Bảng lương từng phòng ban&lt;/p&gt;" style="text;html=1;strokeColor=none;fillColor=none;spacing=5;spacingTop=-20;whiteSpace=wrap;overflow=hidden;rounded=0;labelBackgroundColor=default;labelBorderColor=default;fontColor=#FFFFFF;" parent="1" vertex="1">
                    <mxGeometry x="10" y="-250" width="340" height="200" as="geometry"/>
                </mxCell>
                <mxCell id="5" value="" style="whiteSpace=wrap;html=1;aspect=fixed;labelBackgroundColor=default;labelBorderColor=default;fontSize=23;fontColor=#FFFFFF;" parent="1" vertex="1">
                    <mxGeometry x="17.5" y="-40" width="420" height="420" as="geometry"/>
                </mxCell>
                <mxCell id="7" value="" style="rounded=1;whiteSpace=wrap;html=1;labelBackgroundColor=default;labelBorderColor=default;fontSize=23;fontColor=#FFFFFF;" parent="1" vertex="1">
                    <mxGeometry x="35" y="-20" width="390" height="40" as="geometry"/>
                </mxCell>
                <mxCell id="9" value="" style="ellipse;whiteSpace=wrap;html=1;aspect=fixed;labelBackgroundColor=default;labelBorderColor=default;fontSize=23;fontColor=#FFFFFF;" parent="1" vertex="1">
                    <mxGeometry x="50" y="-15" width="30" height="30" as="geometry"/>
                </mxCell>
                <mxCell id="10" value="logo" style="text;html=1;strokeColor=none;fillColor=none;align=center;verticalAlign=middle;whiteSpace=wrap;rounded=0;labelBackgroundColor=default;labelBorderColor=none;fontSize=9;fontColor=#FFFFFF;" parent="1" vertex="1">
                    <mxGeometry x="46" y="-5" width="38" height="5" as="geometry"/>
                </mxCell>
                <mxCell id="88" style="edgeStyle=entityRelationEdgeStyle;html=1;exitX=0.5;exitY=0;exitDx=0;exitDy=0;dashed=1;fontSize=10;fontColor=#FFFFFF;strokeColor=default;" parent="1" source="11" target="69" edge="1">
                    <mxGeometry relative="1" as="geometry">
                        <mxPoint x="460" y="140" as="targetPoint"/>
                    </mxGeometry>
                </mxCell>
                <mxCell id="11" value="&lt;u&gt;Nhân viên&lt;/u&gt;&amp;nbsp; &amp;nbsp;&lt;u&gt; Phòng ban&lt;/u&gt;&amp;nbsp; &amp;nbsp;&lt;u&gt; Bảng lương&lt;/u&gt;" style="rounded=1;whiteSpace=wrap;html=1;labelBackgroundColor=default;labelBorderColor=none;fontSize=9;fontColor=#FFFFFF;" parent="1" vertex="1">
                    <mxGeometry x="84" y="-15" width="206" height="30" as="geometry"/>
                </mxCell>
                <mxCell id="12" value="" style="rounded=0;whiteSpace=wrap;html=1;labelBackgroundColor=default;labelBorderColor=none;fontSize=9;fontColor=#FFFFFF;" parent="1" vertex="1">
                    <mxGeometry x="35" y="30" width="385" height="280" as="geometry"/>
                </mxCell>
                <mxCell id="13" value="Nhân viên" style="text;html=1;strokeColor=none;fillColor=none;align=center;verticalAlign=middle;whiteSpace=wrap;rounded=0;labelBackgroundColor=default;labelBorderColor=none;fontSize=9;fontColor=#FFFFFF;" parent="1" vertex="1">
                    <mxGeometry x="60" y="40" width="60" height="30" as="geometry"/>
                </mxCell>
                <mxCell id="65" style="edgeStyle=none;html=1;entryX=0.5;entryY=0;entryDx=0;entryDy=0;fontSize=10;fontColor=#FFFFFF;dashed=1;" parent="1" source="18" target="50" edge="1">
                    <mxGeometry relative="1" as="geometry">
                        <Array as="points">
                            <mxPoint x="210" y="40"/>
                            <mxPoint x="440" y="-160"/>
                        </Array>
                    </mxGeometry>
                </mxCell>
                <mxCell id="67" value="Click to&amp;nbsp;" style="edgeLabel;html=1;align=center;verticalAlign=middle;resizable=0;points=[];fontSize=10;fontColor=#FFFFFF;" parent="65" vertex="1" connectable="0">
                    <mxGeometry x="0.3552" y="-2" relative="1" as="geometry">
                        <mxPoint y="-1" as="offset"/>
                    </mxGeometry>
                </mxCell>
                <mxCell id="18" value="" style="whiteSpace=wrap;html=1;aspect=fixed;labelBackgroundColor=default;labelBorderColor=none;fontSize=4;fontColor=#FFFFFF;" parent="1" vertex="1">
                    <mxGeometry x="84" y="70" width="100" height="100" as="geometry"/>
                </mxCell>
                <mxCell id="17" value="" style="shape=actor;whiteSpace=wrap;html=1;labelBackgroundColor=default;labelBorderColor=none;fontSize=4;fontColor=#FFFFFF;" parent="1" vertex="1">
                    <mxGeometry x="114" y="80" width="40" height="60" as="geometry"/>
                </mxCell>
                <mxCell id="19" value="&lt;font style=&quot;font-size: 10px&quot;&gt;Nhân viên 1&lt;/font&gt;" style="text;html=1;strokeColor=none;fillColor=none;align=center;verticalAlign=middle;whiteSpace=wrap;rounded=0;labelBackgroundColor=default;labelBorderColor=none;fontSize=4;fontColor=#FFFFFF;" parent="1" vertex="1">
                    <mxGeometry x="104" y="140" width="60" height="30" as="geometry"/>
                </mxCell>
                <mxCell id="21" value="" style="whiteSpace=wrap;html=1;aspect=fixed;labelBackgroundColor=default;labelBorderColor=none;fontSize=4;fontColor=#FFFFFF;" parent="1" vertex="1">
                    <mxGeometry x="200" y="70" width="100" height="100" as="geometry"/>
                </mxCell>
                <mxCell id="23" value="&lt;font style=&quot;font-size: 10px&quot;&gt;Nhân viên 1&lt;/font&gt;" style="text;html=1;strokeColor=none;fillColor=none;align=center;verticalAlign=middle;whiteSpace=wrap;rounded=0;labelBackgroundColor=default;labelBorderColor=none;fontSize=4;fontColor=#FFFFFF;" parent="1" vertex="1">
                    <mxGeometry x="220" y="140" width="60" height="30" as="geometry"/>
                </mxCell>
                <mxCell id="24" value="" style="whiteSpace=wrap;html=1;aspect=fixed;labelBackgroundColor=default;labelBorderColor=none;fontSize=4;fontColor=#FFFFFF;" parent="1" vertex="1">
                    <mxGeometry x="310" y="70" width="100" height="100" as="geometry"/>
                </mxCell>
                <mxCell id="25" value="" style="shape=actor;whiteSpace=wrap;html=1;labelBackgroundColor=default;labelBorderColor=none;fontSize=4;fontColor=#FFFFFF;" parent="1" vertex="1">
                    <mxGeometry x="340" y="80" width="40" height="60" as="geometry"/>
                </mxCell>
                <mxCell id="26" value="&lt;font style=&quot;font-size: 10px&quot;&gt;Nhân viên 1&lt;/font&gt;" style="text;html=1;strokeColor=none;fillColor=none;align=center;verticalAlign=middle;whiteSpace=wrap;rounded=0;labelBackgroundColor=default;labelBorderColor=none;fontSize=4;fontColor=#FFFFFF;" parent="1" vertex="1">
                    <mxGeometry x="330" y="140" width="60" height="30" as="geometry"/>
                </mxCell>
                <mxCell id="27" value="" style="whiteSpace=wrap;html=1;aspect=fixed;labelBackgroundColor=default;labelBorderColor=none;fontSize=4;fontColor=#FFFFFF;" parent="1" vertex="1">
                    <mxGeometry x="84" y="190" width="100" height="100" as="geometry"/>
                </mxCell>
                <mxCell id="28" value="" style="shape=actor;whiteSpace=wrap;html=1;labelBackgroundColor=default;labelBorderColor=none;fontSize=4;fontColor=#FFFFFF;" parent="1" vertex="1">
                    <mxGeometry x="114" y="200" width="40" height="60" as="geometry"/>
                </mxCell>
                <mxCell id="29" value="&lt;font style=&quot;font-size: 10px&quot;&gt;Nhân viên 1&lt;/font&gt;" style="text;html=1;strokeColor=none;fillColor=none;align=center;verticalAlign=middle;whiteSpace=wrap;rounded=0;labelBackgroundColor=default;labelBorderColor=none;fontSize=4;fontColor=#FFFFFF;" parent="1" vertex="1">
                    <mxGeometry x="104" y="260" width="60" height="30" as="geometry"/>
                </mxCell>
                <mxCell id="30" value="" style="whiteSpace=wrap;html=1;aspect=fixed;labelBackgroundColor=default;labelBorderColor=none;fontSize=4;fontColor=#FFFFFF;" parent="1" vertex="1">
                    <mxGeometry x="200" y="190" width="100" height="100" as="geometry"/>
                </mxCell>
                <mxCell id="31" value="" style="shape=actor;whiteSpace=wrap;html=1;labelBackgroundColor=default;labelBorderColor=none;fontSize=4;fontColor=#FFFFFF;" parent="1" vertex="1">
                    <mxGeometry x="230" y="200" width="40" height="60" as="geometry"/>
                </mxCell>
                <mxCell id="32" value="&lt;font style=&quot;font-size: 10px&quot;&gt;Nhân viên 1&lt;/font&gt;" style="text;html=1;strokeColor=none;fillColor=none;align=center;verticalAlign=middle;whiteSpace=wrap;rounded=0;labelBackgroundColor=default;labelBorderColor=none;fontSize=4;fontColor=#FFFFFF;" parent="1" vertex="1">
                    <mxGeometry x="220" y="260" width="60" height="30" as="geometry"/>
                </mxCell>
                <mxCell id="33" value="" style="whiteSpace=wrap;html=1;aspect=fixed;labelBackgroundColor=default;labelBorderColor=none;fontSize=4;fontColor=#FFFFFF;" parent="1" vertex="1">
                    <mxGeometry x="310" y="190" width="100" height="100" as="geometry"/>
                </mxCell>
                <mxCell id="34" value="" style="shape=actor;whiteSpace=wrap;html=1;labelBackgroundColor=default;labelBorderColor=none;fontSize=4;fontColor=#FFFFFF;" parent="1" vertex="1">
                    <mxGeometry x="340" y="200" width="40" height="60" as="geometry"/>
                </mxCell>
                <mxCell id="35" value="&lt;font style=&quot;font-size: 10px&quot;&gt;Nhân viên 1&lt;/font&gt;" style="text;html=1;strokeColor=none;fillColor=none;align=center;verticalAlign=middle;whiteSpace=wrap;rounded=0;labelBackgroundColor=default;labelBorderColor=none;fontSize=4;fontColor=#FFFFFF;" parent="1" vertex="1">
                    <mxGeometry x="330" y="260" width="60" height="30" as="geometry"/>
                </mxCell>
                <mxCell id="46" value="" style="rounded=1;whiteSpace=wrap;html=1;labelBackgroundColor=default;labelBorderColor=none;fontSize=10;fontColor=#FFFFFF;" parent="1" vertex="1">
                    <mxGeometry x="35" y="320" width="385" height="50" as="geometry"/>
                </mxCell>
                <mxCell id="47" value="footer" style="text;html=1;strokeColor=none;fillColor=none;align=center;verticalAlign=middle;whiteSpace=wrap;rounded=0;labelBackgroundColor=default;labelBorderColor=none;fontSize=10;fontColor=#FFFFFF;" parent="1" vertex="1">
                    <mxGeometry x="200" y="330" width="60" height="30" as="geometry"/>
                </mxCell>
                <mxCell id="50" value="" style="whiteSpace=wrap;html=1;aspect=fixed;labelBackgroundColor=default;labelBorderColor=default;fontSize=23;fontColor=#FFFFFF;" parent="1" vertex="1">
                    <mxGeometry x="474" y="-40" width="420" height="420" as="geometry"/>
                </mxCell>
                <mxCell id="52" value="" style="rounded=1;whiteSpace=wrap;html=1;labelBackgroundColor=default;labelBorderColor=default;fontSize=23;fontColor=#FFFFFF;" parent="1" vertex="1">
                    <mxGeometry x="492" y="-20" width="390" height="40" as="geometry"/>
                </mxCell>
                <mxCell id="53" value="" style="ellipse;whiteSpace=wrap;html=1;aspect=fixed;labelBackgroundColor=default;labelBorderColor=default;fontSize=23;fontColor=#FFFFFF;" parent="1" vertex="1">
                    <mxGeometry x="510" y="-15" width="30" height="30" as="geometry"/>
                </mxCell>
                <mxCell id="56" value="logo" style="text;html=1;strokeColor=none;fillColor=none;align=center;verticalAlign=middle;whiteSpace=wrap;rounded=0;labelBackgroundColor=default;labelBorderColor=none;fontSize=9;fontColor=#FFFFFF;" parent="1" vertex="1">
                    <mxGeometry x="506" y="-2.5" width="38" height="5" as="geometry"/>
                </mxCell>
                <mxCell id="57" value="&lt;u&gt;Nhân viên&lt;/u&gt;&amp;nbsp; &amp;nbsp;&lt;u&gt; Phòng ban&lt;/u&gt;&amp;nbsp; &amp;nbsp;&lt;u&gt; Bảng lương&lt;/u&gt;" style="rounded=1;whiteSpace=wrap;html=1;labelBackgroundColor=default;labelBorderColor=none;fontSize=9;fontColor=#FFFFFF;" parent="1" vertex="1">
                    <mxGeometry x="550" y="-15" width="206" height="30" as="geometry"/>
                </mxCell>
                <mxCell id="58" value="" style="rounded=1;whiteSpace=wrap;html=1;labelBackgroundColor=default;labelBorderColor=none;fontSize=10;fontColor=#FFFFFF;" parent="1" vertex="1">
                    <mxGeometry x="485" y="320" width="385" height="50" as="geometry"/>
                </mxCell>
                <mxCell id="59" value="footer" style="text;html=1;strokeColor=none;fillColor=none;align=center;verticalAlign=middle;whiteSpace=wrap;rounded=0;labelBackgroundColor=default;labelBorderColor=none;fontSize=10;fontColor=#FFFFFF;" parent="1" vertex="1">
                    <mxGeometry x="660" y="330" width="60" height="30" as="geometry"/>
                </mxCell>
                <mxCell id="60" value="" style="whiteSpace=wrap;html=1;aspect=fixed;labelBackgroundColor=default;labelBorderColor=none;fontSize=4;fontColor=#FFFFFF;" parent="1" vertex="1">
                    <mxGeometry x="520" y="70" width="100" height="100" as="geometry"/>
                </mxCell>
                <mxCell id="61" value="Nhân viên&amp;nbsp; / tên nhân viên" style="text;html=1;strokeColor=none;fillColor=none;align=center;verticalAlign=middle;whiteSpace=wrap;rounded=0;labelBackgroundColor=default;labelBorderColor=none;fontSize=9;fontColor=#FFFFFF;fontStyle=4" parent="1" vertex="1">
                    <mxGeometry x="520" y="30" width="110" height="30" as="geometry"/>
                </mxCell>
                <mxCell id="22" value="" style="shape=actor;whiteSpace=wrap;html=1;labelBackgroundColor=default;labelBorderColor=none;fontSize=4;fontColor=#FFFFFF;" parent="1" vertex="1">
                    <mxGeometry x="550" y="80" width="40" height="60" as="geometry"/>
                </mxCell>
                <mxCell id="62" value="" style="shape=actor;whiteSpace=wrap;html=1;labelBackgroundColor=default;labelBorderColor=none;fontSize=4;fontColor=#FFFFFF;" parent="1" vertex="1">
                    <mxGeometry x="230" y="80" width="40" height="60" as="geometry"/>
                </mxCell>
                <mxCell id="63" value="" style="whiteSpace=wrap;html=1;aspect=fixed;labelBackgroundColor=default;labelBorderColor=none;fontSize=10;fontColor=#FFFFFF;" parent="1" vertex="1">
                    <mxGeometry x="650" y="70" width="160" height="160" as="geometry"/>
                </mxCell>
                <mxCell id="64" value="&lt;div style=&quot;text-align: left&quot;&gt;Profile của nhân viên&lt;/div&gt;&lt;div style=&quot;text-align: left&quot;&gt;Họ tên:&lt;/div&gt;&lt;div style=&quot;text-align: left&quot;&gt;Ngày sinh:&amp;nbsp;&lt;/div&gt;&lt;div style=&quot;text-align: left&quot;&gt;ngày vào công ty&lt;/div&gt;&lt;div style=&quot;text-align: left&quot;&gt;Phòng bạn:&lt;/div&gt;&amp;nbsp;" style="text;html=1;strokeColor=none;fillColor=none;align=center;verticalAlign=middle;whiteSpace=wrap;rounded=0;labelBackgroundColor=default;labelBorderColor=none;fontSize=10;fontColor=#FFFFFF;" parent="1" vertex="1">
                    <mxGeometry x="670" y="80" width="120" height="90" as="geometry"/>
                </mxCell>
                <mxCell id="69" value="" style="whiteSpace=wrap;html=1;aspect=fixed;labelBackgroundColor=default;labelBorderColor=default;fontSize=23;fontColor=#FFFFFF;" parent="1" vertex="1">
                    <mxGeometry x="17.5" y="400" width="420" height="420" as="geometry"/>
                </mxCell>
                <mxCell id="72" value="" style="rounded=1;whiteSpace=wrap;html=1;labelBackgroundColor=default;labelBorderColor=default;fontSize=23;fontColor=#FFFFFF;" parent="1" vertex="1">
                    <mxGeometry x="30" y="430" width="390" height="40" as="geometry"/>
                </mxCell>
                <mxCell id="74" value="" style="rounded=1;whiteSpace=wrap;html=1;labelBackgroundColor=default;labelBorderColor=none;fontSize=10;fontColor=#FFFFFF;" parent="1" vertex="1">
                    <mxGeometry x="32.5" y="750" width="385" height="50" as="geometry"/>
                </mxCell>
                <mxCell id="75" value="&lt;u&gt;Nhân viên&lt;/u&gt;&amp;nbsp; &amp;nbsp;&lt;u&gt; Phòng ban&lt;/u&gt;&amp;nbsp; &amp;nbsp;&lt;u&gt; Bảng lương&lt;/u&gt;" style="rounded=1;whiteSpace=wrap;html=1;labelBackgroundColor=default;labelBorderColor=none;fontSize=9;fontColor=#FFFFFF;" parent="1" vertex="1">
                    <mxGeometry x="104" y="435" width="206" height="30" as="geometry"/>
                </mxCell>
                <mxCell id="77" value="Logo" style="ellipse;whiteSpace=wrap;html=1;aspect=fixed;labelBackgroundColor=default;labelBorderColor=none;fontSize=10;fontColor=#FFFFFF;" parent="1" vertex="1">
                    <mxGeometry x="44" y="430" width="40" height="40" as="geometry"/>
                </mxCell>
                <mxCell id="82" value="" style="rounded=0;whiteSpace=wrap;html=1;labelBackgroundColor=default;labelBorderColor=none;fontSize=10;fontColor=#FFFFFF;" parent="1" vertex="1">
                    <mxGeometry x="35" y="480" width="385" height="250" as="geometry"/>
                </mxCell>
                <mxCell id="85" value="Tên phòng ban 1&lt;br&gt;Số lượng nhân viên" style="rounded=0;whiteSpace=wrap;html=1;labelBackgroundColor=default;labelBorderColor=none;fontSize=10;fontColor=#FFFFFF;" parent="1" vertex="1">
                    <mxGeometry x="50" y="510" width="100" height="60" as="geometry"/>
                </mxCell>
                <mxCell id="86" value="Tên phòng ban 1&lt;br&gt;Số lượng nhân viên" style="rounded=0;whiteSpace=wrap;html=1;labelBackgroundColor=default;labelBorderColor=none;fontSize=10;fontColor=#FFFFFF;" parent="1" vertex="1">
                    <mxGeometry x="174" y="510" width="86" height="60" as="geometry"/>
                </mxCell>
                <mxCell id="87" value="Tên phòng ban 1&lt;br&gt;Số lượng nhân viên" style="rounded=0;whiteSpace=wrap;html=1;labelBackgroundColor=default;labelBorderColor=none;fontSize=10;fontColor=#FFFFFF;" parent="1" vertex="1">
                    <mxGeometry x="290" y="510" width="90" height="60" as="geometry"/>
                </mxCell>
                <mxCell id="90" value="&lt;span style=&quot;color: rgba(0 , 0 , 0 , 0) ; font-family: monospace ; font-size: 0px&quot;&gt;%3CmxGraphModel%3E%3Croot%3E%3CmxCell%20id%3D%220%22%2F%3E%3CmxCell%20id%3D%221%22%20parent%3D%220%22%2F%3E%3CmxCell%20id%3D%222%22%20value%3D%22Nh%C3%A2n%20vi%C3%AAn%26amp%3Bnbsp%3B%20%2F%20t%C3%AAn%20nh%C3%A2n%20vi%C3%AAn%22%20style%3D%22text%3Bhtml%3D1%3BstrokeColor%3Dnone%3BfillColor%3Dnone%3Balign%3Dcenter%3BverticalAlign%3Dmiddle%3BwhiteSpace%3Dwrap%3Brounded%3D0%3BlabelBackgroundColor%3Ddefault%3BlabelBorderColor%3Dnone%3BfontSize%3D9%3BfontColor%3D%23FFFFFF%3BfontStyle%3D4%22%20vertex%3D%221%22%20parent%3D%221%22%3E%3CmxGeometry%20x%3D%22520%22%20y%3D%2230%22%20width%3D%22110%22%20height%3D%2230%22%20as%3D%22geometry%22%2F%3E%3C%2FmxCell%3E%3C%2Froot%3E%3C%2FmxGraphModel%3E&lt;/span&gt;" style="whiteSpace=wrap;html=1;aspect=fixed;labelBackgroundColor=default;labelBorderColor=default;fontSize=23;fontColor=#FFFFFF;" parent="1" vertex="1">
                    <mxGeometry x="480" y="395" width="430" height="430" as="geometry"/>
                </mxCell>
                <mxCell id="92" value="" style="rounded=1;whiteSpace=wrap;html=1;labelBackgroundColor=default;labelBorderColor=default;fontSize=23;fontColor=#FFFFFF;" parent="1" vertex="1">
                    <mxGeometry x="489" y="410" width="390" height="40" as="geometry"/>
                </mxCell>
                <mxCell id="93" value="Logo" style="ellipse;whiteSpace=wrap;html=1;aspect=fixed;labelBackgroundColor=default;labelBorderColor=none;fontSize=10;fontColor=#FFFFFF;" parent="1" vertex="1">
                    <mxGeometry x="500" y="410" width="40" height="40" as="geometry"/>
                </mxCell>
                <mxCell id="94" value="&lt;u&gt;Nhân viên&lt;/u&gt;&amp;nbsp; &amp;nbsp;&lt;u&gt; Phòng ban&lt;/u&gt;&amp;nbsp; &amp;nbsp;&lt;u&gt; Bảng lương&lt;/u&gt;" style="rounded=1;whiteSpace=wrap;html=1;labelBackgroundColor=default;labelBorderColor=none;fontSize=9;fontColor=#FFFFFF;" parent="1" vertex="1">
                    <mxGeometry x="550" y="415" width="206" height="30" as="geometry"/>
                </mxCell>
                <mxCell id="95" value="footer" style="text;html=1;strokeColor=none;fillColor=none;align=center;verticalAlign=middle;whiteSpace=wrap;rounded=0;labelBackgroundColor=default;labelBorderColor=none;fontSize=10;fontColor=#FFFFFF;" parent="1" vertex="1">
                    <mxGeometry x="210" y="760" width="60" height="30" as="geometry"/>
                </mxCell>
                <mxCell id="96" value="Tên nhân viên&lt;br&gt;Mã nhân viên&amp;nbsp;&lt;br&gt;hệ số lương&lt;br&gt;Lương $$$" style="whiteSpace=wrap;html=1;aspect=fixed;labelBackgroundColor=default;labelBorderColor=none;fontSize=10;fontColor=#FFFFFF;" parent="1" vertex="1">
                    <mxGeometry x="506" y="520" width="110" height="110" as="geometry"/>
                </mxCell>
                <mxCell id="97" value="Phòng ban/ Tên phòng ban" style="text;html=1;strokeColor=none;fillColor=none;align=center;verticalAlign=middle;whiteSpace=wrap;rounded=0;labelBackgroundColor=default;labelBorderColor=none;fontSize=9;fontColor=#FFFFFF;fontStyle=4" parent="1" vertex="1">
                    <mxGeometry x="500" y="470" width="150" height="30" as="geometry"/>
                </mxCell>
                <mxCell id="98" value="Tên nhân viên&lt;br&gt;Mã nhân viên&amp;nbsp;&lt;br&gt;hệ số lương&lt;br&gt;Lương $$$" style="whiteSpace=wrap;html=1;aspect=fixed;labelBackgroundColor=default;labelBorderColor=none;fontSize=10;fontColor=#FFFFFF;" parent="1" vertex="1">
                    <mxGeometry x="680" y="520" width="110" height="110" as="geometry"/>
                </mxCell>
                <mxCell id="99" value="Tên nhân viên&lt;br&gt;Mã nhân viên&amp;nbsp;&lt;br&gt;hệ số lương&lt;br&gt;Lương $$$" style="whiteSpace=wrap;html=1;aspect=fixed;labelBackgroundColor=default;labelBorderColor=none;fontSize=10;fontColor=#FFFFFF;" parent="1" vertex="1">
                    <mxGeometry x="506" y="650" width="110" height="110" as="geometry"/>
                </mxCell>
                <mxCell id="100" value="" style="rounded=1;whiteSpace=wrap;html=1;labelBackgroundColor=default;labelBorderColor=none;fontSize=10;fontColor=#FFFFFF;" parent="1" vertex="1">
                    <mxGeometry x="485" y="775" width="385" height="50" as="geometry"/>
                </mxCell>
                <mxCell id="101" value="footer" style="text;html=1;strokeColor=none;fillColor=none;align=center;verticalAlign=middle;whiteSpace=wrap;rounded=0;labelBackgroundColor=default;labelBorderColor=none;fontSize=10;fontColor=#FFFFFF;" parent="1" vertex="1">
                    <mxGeometry x="660" y="785" width="60" height="30" as="geometry"/>
                </mxCell>
                <mxCell id="102" style="edgeStyle=entityRelationEdgeStyle;html=1;exitX=0.5;exitY=0;exitDx=0;exitDy=0;entryX=0.5;entryY=0;entryDx=0;entryDy=0;dashed=1;fontSize=10;fontColor=#FFFFFF;strokeColor=default;" parent="1" source="86" target="90" edge="1">
                    <mxGeometry relative="1" as="geometry"/>
                </mxCell>
                <mxCell id="103" value="&lt;span style=&quot;color: rgba(0 , 0 , 0 , 0) ; font-family: monospace ; font-size: 0px&quot;&gt;%3CmxGraphModel%3E%3Croot%3E%3CmxCell%20id%3D%220%22%2F%3E%3CmxCell%20id%3D%221%22%20parent%3D%220%22%2F%3E%3CmxCell%20id%3D%222%22%20value%3D%22Nh%C3%A2n%20vi%C3%AAn%26amp%3Bnbsp%3B%20%2F%20t%C3%AAn%20nh%C3%A2n%20vi%C3%AAn%22%20style%3D%22text%3Bhtml%3D1%3BstrokeColor%3Dnone%3BfillColor%3Dnone%3Balign%3Dcenter%3BverticalAlign%3Dmiddle%3BwhiteSpace%3Dwrap%3Brounded%3D0%3BlabelBackgroundColor%3Ddefault%3BlabelBorderColor%3Dnone%3BfontSize%3D9%3BfontColor%3D%23FFFFFF%3BfontStyle%3D4%22%20vertex%3D%221%22%20parent%3D%221%22%3E%3CmxGeometry%20x%3D%22520%22%20y%3D%2230%22%20width%3D%22110%22%20height%3D%2230%22%20as%3D%22geometry%22%2F%3E%3C%2FmxCell%3E%3C%2Froot%3E%3C%2FmxGraphModel%3E&lt;/span&gt;" style="whiteSpace=wrap;html=1;aspect=fixed;labelBackgroundColor=default;labelBorderColor=default;fontSize=23;fontColor=#FFFFFF;" parent="1" vertex="1">
                    <mxGeometry x="15" y="860" width="430" height="430" as="geometry"/>
                </mxCell>
                <mxCell id="104" value="" style="rounded=1;whiteSpace=wrap;html=1;labelBackgroundColor=default;labelBorderColor=none;fontSize=10;fontColor=#FFFFFF;" parent="1" vertex="1">
                    <mxGeometry x="32.5" y="1220" width="385" height="50" as="geometry"/>
                </mxCell>
                <mxCell id="105" value="footer" style="text;html=1;strokeColor=none;fillColor=none;align=center;verticalAlign=middle;whiteSpace=wrap;rounded=0;labelBackgroundColor=default;labelBorderColor=none;fontSize=10;fontColor=#FFFFFF;" parent="1" vertex="1">
                    <mxGeometry x="200" y="1230" width="60" height="30" as="geometry"/>
                </mxCell>
                <mxCell id="106" value="" style="rounded=1;whiteSpace=wrap;html=1;labelBackgroundColor=default;labelBorderColor=default;fontSize=23;fontColor=#FFFFFF;" parent="1" vertex="1">
                    <mxGeometry x="27.5" y="880" width="390" height="40" as="geometry"/>
                </mxCell>
                <mxCell id="107" value="&lt;u&gt;Nhân viên&lt;/u&gt;&amp;nbsp; &amp;nbsp;&lt;u&gt; Phòng ban&lt;/u&gt;&amp;nbsp; &amp;nbsp;&lt;u&gt; Bảng lương&lt;/u&gt;" style="rounded=1;whiteSpace=wrap;html=1;labelBackgroundColor=default;labelBorderColor=none;fontSize=9;fontColor=#FFFFFF;" parent="1" vertex="1">
                    <mxGeometry x="114" y="885" width="206" height="30" as="geometry"/>
                </mxCell>
                <mxCell id="108" value="Logo" style="ellipse;whiteSpace=wrap;html=1;aspect=fixed;labelBackgroundColor=default;labelBorderColor=none;fontSize=10;fontColor=#FFFFFF;" parent="1" vertex="1">
                    <mxGeometry x="40" y="880" width="40" height="40" as="geometry"/>
                </mxCell>
                <mxCell id="115" style="edgeStyle=orthogonalEdgeStyle;html=1;exitX=0;exitY=0.5;exitDx=0;exitDy=0;entryX=0;entryY=0.5;entryDx=0;entryDy=0;dashed=1;fontSize=10;fontColor=#FFFFFF;strokeColor=default;elbow=vertical;curved=1;" parent="1" source="109" target="5" edge="1">
                    <mxGeometry relative="1" as="geometry">
                        <Array as="points">
                            <mxPoint x="-10" y="955"/>
                            <mxPoint x="-10" y="170"/>
                        </Array>
                    </mxGeometry>
                </mxCell>
                <mxCell id="117" value="Text" style="edgeLabel;html=1;align=center;verticalAlign=middle;resizable=0;points=[];fontSize=10;fontColor=#FFFFFF;" parent="115" vertex="1" connectable="0">
                    <mxGeometry x="-0.1824" y="-1" relative="1" as="geometry">
                        <mxPoint as="offset"/>
                    </mxGeometry>
                </mxCell>
                <mxCell id="109" value="Nhân viên/ Bảng lương" style="text;html=1;strokeColor=none;fillColor=none;align=center;verticalAlign=middle;whiteSpace=wrap;rounded=0;labelBackgroundColor=default;labelBorderColor=none;fontSize=9;fontColor=#FFFFFF;fontStyle=4" parent="1" vertex="1">
                    <mxGeometry x="40" y="940" width="150" height="30" as="geometry"/>
                </mxCell>
                <mxCell id="110" value="Tên nhân viên&lt;br&gt;Mã nhân viên&amp;nbsp;&lt;br&gt;hệ số lương&lt;br&gt;Lương $$$" style="whiteSpace=wrap;html=1;aspect=fixed;labelBackgroundColor=default;labelBorderColor=none;fontSize=10;fontColor=#FFFFFF;" parent="1" vertex="1">
                    <mxGeometry x="64" y="970" width="110" height="110" as="geometry"/>
                </mxCell>
                <mxCell id="111" value="Tên nhân viên&lt;br&gt;Mã nhân viên&amp;nbsp;&lt;br&gt;hệ số lương&lt;br&gt;Lương $$$" style="whiteSpace=wrap;html=1;aspect=fixed;labelBackgroundColor=default;labelBorderColor=none;fontSize=10;fontColor=#FFFFFF;" parent="1" vertex="1">
                    <mxGeometry x="220" y="970" width="110" height="110" as="geometry"/>
                </mxCell>
                <mxCell id="112" value="Tên nhân viên&lt;br&gt;Mã nhân viên&amp;nbsp;&lt;br&gt;hệ số lương&lt;br&gt;Lương $$$" style="whiteSpace=wrap;html=1;aspect=fixed;labelBackgroundColor=default;labelBorderColor=none;fontSize=10;fontColor=#FFFFFF;" parent="1" vertex="1">
                    <mxGeometry x="64" y="1100" width="110" height="110" as="geometry"/>
                </mxCell>
                <mxCell id="113" value="Tên nhân viên&lt;br&gt;Mã nhân viên&amp;nbsp;&lt;br&gt;hệ số lương&lt;br&gt;Lương $$$" style="whiteSpace=wrap;html=1;aspect=fixed;labelBackgroundColor=default;labelBorderColor=none;fontSize=10;fontColor=#FFFFFF;" parent="1" vertex="1">
                    <mxGeometry x="220" y="1100" width="110" height="110" as="geometry"/>
                </mxCell>
                <mxCell id="114" style="edgeStyle=entityRelationEdgeStyle;html=1;exitX=0.75;exitY=0;exitDx=0;exitDy=0;entryX=0.5;entryY=0;entryDx=0;entryDy=0;dashed=1;fontSize=10;fontColor=#FFFFFF;strokeColor=default;" parent="1" source="75" target="103" edge="1">
                    <mxGeometry relative="1" as="geometry"/>
                </mxCell>
            </root>
        </mxGraphModel>
    </diagram>
</mxfile>